<?xml version="1.0" encoding="UTF-8"?>
<svg width="121px" height="121px" viewBox="0 0 121 121" version="1.1" xmlns="http://www.w3.org/2000/svg" xmlns:xlink="http://www.w3.org/1999/xlink">
    <!-- Generator: Sketch 41.2 (35397) - http://www.bohemiancoding.com/sketch -->
    <title>glogo-circle</title>
    <desc>Created with Sketch.</desc>
    <defs>
        <circle id="path-1" cx="55.5" cy="55.5" r="55.5"></circle>
        <filter x="-50%" y="-50%" width="200%" height="200%" filterUnits="objectBoundingBox" id="filter-2">
            <feMorphology radius="0.5" operator="dilate" in="SourceAlpha" result="shadowSpreadOuter1"></feMorphology>
            <feOffset dx="0" dy="2" in="shadowSpreadOuter1" result="shadowOffsetOuter1"></feOffset>
            <feGaussianBlur stdDeviation="2" in="shadowOffsetOuter1" result="shadowBlurOuter1"></feGaussianBlur>
            <feComposite in="shadowBlurOuter1" in2="SourceAlpha" operator="out" result="shadowBlurOuter1"></feComposite>
            <feColorMatrix values="0 0 0 0 0.907844388   0 0 0 0 0.907844388   0 0 0 0 0.907844388  0 0 0 0.5 0" type="matrix" in="shadowBlurOuter1"></feColorMatrix>
        </filter>
        <linearGradient x1="20.0104205%" y1="25.5822737%" x2="110.368099%" y2="195.343003%" id="linearGradient-3">
            <stop stop-color="#2800D7" offset="0%"></stop>
            <stop stop-color="#D91976" offset="100%"></stop>
        </linearGradient>
        <linearGradient x1="45.7749175%" y1="33.9308865%" x2="190.658408%" y2="128.804305%" id="linearGradient-4">
            <stop stop-color="#2800D7" offset="0%"></stop>
            <stop stop-color="#D91976" offset="100%"></stop>
        </linearGradient>
        <linearGradient x1="13.328165%" y1="22.7539417%" x2="111.983515%" y2="150.699795%" id="linearGradient-5">
            <stop stop-color="#2800D7" offset="0%"></stop>
            <stop stop-color="#D91976" offset="100%"></stop>
        </linearGradient>
        <linearGradient x1="-0.939668678%" y1="-10.3988642%" x2="104.491799%" y2="109.712857%" id="linearGradient-6">
            <stop stop-color="#2800D7" offset="0%"></stop>
            <stop stop-color="#D91976" offset="100%"></stop>
        </linearGradient>
        <linearGradient x1="-21.7654434%" y1="-10.873145%" x2="106.419424%" y2="91.5782414%" id="linearGradient-7">
            <stop stop-color="#2800D7" offset="0%"></stop>
            <stop stop-color="#D91976" offset="100%"></stop>
        </linearGradient>
    </defs>
    <g id="Welcome" stroke="none" stroke-width="1" fill="none" fill-rule="evenodd">
        <g id="Desktop-HD" transform="translate(-657.000000, -175.000000)">
            <g id="Group-8" transform="translate(-2.000000, 0.000000)">
                <g id="Group-7" transform="translate(1.000000, 0.000000)">
                    <g id="glogo-circle" transform="translate(663.000000, 178.000000)">
                        <g id="Oval-2">
                            <use fill="black" fill-opacity="1" filter="url(#filter-2)" xlink:href="#path-1"></use>
                            <use stroke="#CCCCCC" stroke-width="1" fill="#FFFFFF" fill-rule="evenodd" xlink:href="#path-1"></use>
                        </g>
                        <g id="GlassLogo" transform="translate(19.000000, 17.000000)">
                            <g id="Layer_1">
                                <g id="Group">
                                    <path d="M18.9535965,33.4202865 C18.9535965,33.4202865 20.3312044,20.031343 39.7081657,16.3164652 C39.7081657,16.3164652 59.2576915,13.2935506 71.0566461,30.8288279 C71.0566461,30.8288279 72.262368,29.8790802 72.262368,24.0051721 C72.262368,24.0051721 65.1143185,10.6154507 47.5456008,3.27321156 C47.5456978,3.27321156 21.2788551,6.98721419 18.9535965,33.4202865 Z" id="Shape" fill="url(#linearGradient-3)"></path>
                                    <path d="M27.5217164,54.0174717 C27.5217164,54.0174717 15.1137448,48.8893982 17.0662446,29.198883 C17.0662446,29.198883 19.7284888,9.53909593 39.8423394,3.17178975 C39.8423394,3.17178975 39.2772391,1.74206307 33.6619116,0.0742917214 C33.6619116,0.0742917214 18.831541,3.14582654 6.82327923,17.9566202 C6.82327923,17.9567175 2.91411086,44.2734901 27.5217164,54.0174717 Z" id="Shape" fill="url(#linearGradient-4)"></path>
                                    <path d="M48.901008,52.3207227 C48.901008,52.3207227 39.9388011,62.3389225 22.0861275,53.9221761 C22.0861275,53.9221761 4.49966869,44.8422497 5.22957789,23.6985729 C5.22957789,23.6985729 3.69734056,23.7561393 0.254581161,28.5078922 C0.254581161,28.5078922 -1.80853448,43.5550775 8.10171097,59.853456 C8.10180792,59.8533587 31.5283159,72.3341735 48.901008,52.3207227 Z" id="Shape" fill="url(#linearGradient-5)"></path>
                                    <path d="M54.1187584,31.3883495 C54.1187584,31.3883495 60.7475632,43.0927963 47.1257261,57.4030933 C47.1257261,57.4030933 32.9599229,71.2498449 13.2012838,63.8472194 C13.2012838,63.8472194 12.7689999,65.3228436 16.1702663,70.1051301 C16.1702663,70.1051301 29.7414974,76.8420473 48.295481,72.5871932 C48.295481,72.5871932 67.5278952,54.2633929 54.1187584,31.3883495 Z" id="Shape" fill="url(#linearGradient-6)"></path>
                                    <path d="M35.5100971,19.607958 C35.5100971,19.607958 48.6074544,16.6712957 58.2688385,33.9217556 C58.2688385,33.9217556 67.3289613,51.5589409 54.4930684,68.3468279 C54.4930684,68.3468279 55.7741176,69.1929172 61.3274964,67.3285256 C61.3274964,67.3285256 71.7184989,56.2802576 73.0872847,37.2388226 C73.0872847,37.2388226 61.241408,13.4331879 35.5100971,19.607958 Z" id="Shape" fill="url(#linearGradient-7)"></path>
                                </g>
                            </g>
                        </g>
                    </g>
                </g>
            </g>
        </g>
    </g>
</svg>