<?xml version="1.0" encoding="UTF-8"?>
<svg width="74px" height="48px" viewBox="0 0 74 48" version="1.1" xmlns="http://www.w3.org/2000/svg" xmlns:xlink="http://www.w3.org/1999/xlink">
    <!-- Generator: Sketch 42 (36781) - http://www.bohemiancoding.com/sketch -->
    <title>AMERICAN EXPRESS</title>
    <desc>Created with Sketch.</desc>
    <defs></defs>
    <g id="Welcome" stroke="none" stroke-width="1" fill="none" fill-rule="evenodd">
        <g id="Terms" transform="translate(-585.000000, -454.000000)">
            <g id="Group-4" transform="translate(423.000000, 454.000000)">
                <g id="AMERICAN-EXPRESS" transform="translate(162.000000, 0.000000)">
                    <rect id="Rectangle" fill="#0072CE" x="0.750957854" y="0.943542304" width="72.8858962" height="46.7841745" rx="4"></rect>
                    <path d="M62.2720196,27.9735538 L59.6969311,27.9735538 C59.4398323,27.9735538 59.2690274,27.9838227 59.1251448,28.0874627 C58.9760917,28.1895813 58.9186813,28.3411429 58.9186813,28.5411967 C58.9186813,28.7790932 59.0445563,28.9409237 59.2276634,29.0109045 C59.3767165,29.0662425 59.5368238,29.0824066 59.7721708,29.0824066 L60.53794,29.1042756 C61.3106627,29.1246232 61.8264649,29.2662962 62.1409741,29.6118263 C62.1982062,29.659938 62.2326168,29.7139449 62.2720196,29.7679518 L62.2720196,27.9735538 Z M62.2720196,32.1311338 C61.9288052,32.6664486 61.2600274,32.9378142 60.3546546,32.9378142 L57.6260557,32.9378142 L57.6260557,31.58555 L60.3436004,31.58555 C60.6131797,31.58555 60.8018139,31.5477072 60.9153867,31.4294245 C61.0138045,31.3318698 61.0824474,31.1901968 61.0824474,31.0180973 C61.0824474,30.8343978 61.0138045,30.6885412 60.9098596,30.6010652 C60.807341,30.5048417 60.6581096,30.4611037 60.412065,30.4611037 C59.0853854,30.4129919 57.4302897,30.5048417 57.4302897,28.5092489 C57.4302897,27.5945547 57.9747971,26.6317487 59.4574833,26.6317487 L62.2718413,26.6317487 L62.2718413,25.3770392 L59.6569934,25.3770392 C58.8678677,25.3770392 58.2946551,25.5786143 57.8886815,25.8920064 L57.8886815,25.3770392 L54.0209674,25.3770392 C53.4024683,25.3770392 52.6764585,25.5405813 52.3330658,25.8920064 L52.3330658,25.3770392 L45.4263442,25.3770392 L45.4263442,25.8920064 C44.8766663,25.4690792 43.9491852,25.3770392 43.5211032,25.3770392 L38.9653556,25.3770392 L38.9653556,25.8920064 C38.5304986,25.4428364 37.5634363,25.3770392 36.973999,25.3770392 L31.8753487,25.3770392 L30.7085981,26.7237886 L29.6158391,25.3770392 L21.9995107,25.3770392 L21.9995107,34.1763596 L29.4724914,34.1763596 L30.6747224,32.8083117 L31.8072407,34.1763596 L36.4136235,34.1807334 L36.4136235,32.1107861 L36.8664882,32.1107861 C37.4776773,32.1208648 38.1985166,32.0946221 38.8344884,31.8013874 L38.8344884,34.1761694 L42.6339163,34.1761694 L42.6339163,31.8827781 L42.8172017,31.8827781 C43.0511224,31.8827781 43.0741222,31.893047 43.0741222,32.1423535 L43.0741222,34.1759793 L54.6161101,34.1759793 C55.3488951,34.1759793 56.1148426,33.9759256 56.5390021,33.6129004 L56.5390021,34.1759793 L60.2000744,34.1759793 C60.9619212,34.1759793 61.7059387,34.0620704 62.2720196,33.7703571 L62.2720196,32.1311338 L62.2720196,32.1311338 Z M56.6359936,29.6118263 C56.9111,29.91552 57.0585484,30.2988928 57.0585484,30.9479264 C57.0585484,32.3045643 56.2638957,32.9378142 54.8389765,32.9378142 L52.0870212,32.9378142 L52.0870212,31.58555 L54.8279224,31.58555 C55.095897,31.58555 55.2859576,31.5477072 55.4050574,31.4294245 C55.5022272,31.3318698 55.5719398,31.1901968 55.5719398,31.0180973 C55.5719398,30.8343978 55.4965218,30.6885412 55.3995303,30.6010652 C55.2914847,30.5048417 55.1424315,30.4611037 54.8963869,30.4611037 C53.5750561,30.4129919 51.920317,30.5048417 51.920317,28.5092489 C51.920317,27.5945547 52.4591191,26.6317487 53.9403789,26.6317487 L56.7729228,26.6317487 L56.7729228,27.9739341 L54.1810747,27.9739341 C53.9241542,27.9739341 53.7570935,27.984203 53.6149938,28.087843 C53.4602353,28.1899617 53.4028249,28.3415233 53.4028249,28.541577 C53.4028249,28.7794735 53.534227,28.9413041 53.7119853,29.0112848 C53.8610384,29.0666229 54.0211457,29.0827869 54.2618415,29.0827869 L55.0224402,29.1046559 C55.7894575,29.1246232 56.3159573,29.2661061 56.6359936,29.6118263 L56.6359936,29.6118263 Z M43.8866042,29.2223681 C43.6976135,29.341982 43.4638711,29.3522509 43.188943,29.3522509 L41.4725145,29.3522509 L41.4725145,27.9359011 L43.2122994,27.9359011 C43.4638711,27.9359011 43.7156211,27.941606 43.8866042,28.04981 C44.0697113,28.1519287 44.1791834,28.3472282 44.1791834,28.6170725 C44.1791834,28.8869168 44.0697113,29.1042756 43.8866042,29.2223681 L43.8866042,29.2223681 Z M44.7399154,30.0071795 C45.0544246,30.130977 45.3115234,30.3528997 45.4320496,30.5365992 C45.6315597,30.8444766 45.6604432,31.1318161 45.6661486,31.6876687 L45.6661486,32.9378142 L44.247648,32.9378142 L44.247648,32.1488191 C44.247648,31.7694397 44.2818802,31.2076919 44.0192544,30.9144573 C43.8127909,30.6885412 43.4981034,30.6345343 42.9826578,30.6345343 L41.4726928,30.6345343 L41.4726928,32.9378142 L40.0529441,32.9378142 L40.0529441,26.6315585 L43.3149963,26.6315585 C44.0303086,26.6315585 44.5512813,26.6652178 45.0150218,26.9291669 C45.4609331,27.2165064 45.7413883,27.6101482 45.7413883,28.3295429 C45.74121,29.3360868 45.111835,29.8497228 44.7399154,30.0071795 L44.7399154,30.0071795 Z M46.5248086,26.6315585 L51.2404851,26.6315585 L51.2404851,27.9357109 L47.9318984,27.9357109 L47.9318984,29.0822164 L51.1597183,29.0822164 L51.1597183,30.3688736 L47.9318984,30.3688736 L47.9318984,31.6235831 L51.2404851,31.629288 L51.2404851,32.9378142 L46.5248086,32.9378142 L46.5248086,26.6315585 L46.5248086,26.6315585 Z M36.9920066,29.5418455 L35.1661061,29.5418455 L35.1661061,27.9359011 L37.0084096,27.9359011 C37.5185064,27.9359011 37.8725967,28.1576336 37.8725967,28.7091125 C37.8725967,29.254506 37.5349094,29.5418455 36.9920066,29.5418455 L36.9920066,29.5418455 Z M33.758838,32.3642762 L31.5895447,29.7955258 L33.758838,27.3083562 L33.758838,32.3642762 L33.758838,32.3642762 Z M28.1566877,31.6235831 L24.6828232,31.6235831 L24.6828232,30.3688736 L27.7847681,30.3688736 L27.7847681,29.0822164 L24.6828232,29.0822164 L24.6828232,27.9357109 L28.2251523,27.9357109 L29.7705976,29.7734666 L28.1566877,31.6235831 L28.1566877,31.6235831 Z M39.3895151,28.7091125 C39.3895151,30.4609135 38.1641061,30.8226076 36.9290691,30.8226076 L35.1661061,30.8226076 L35.1661061,32.9378142 L32.4198561,32.9378142 L30.6800712,30.8501815 L28.8719999,32.9378142 L23.2753767,32.9378142 L23.2753767,26.6315585 L28.9581155,26.6315585 L30.6964741,28.6986534 L32.4936695,26.6315585 L37.0084096,26.6315585 C38.1296955,26.6315585 39.3895151,26.962636 39.3895151,28.7091125 L39.3895151,28.7091125 Z" id="EXPRESS" fill="#FFFFFF"></path>
                    <path d="M16.5342896,19.3642084 L15.5672273,16.850796 L14.6056921,19.3642084 L16.5342896,19.3642084 Z M37.8385427,18.3633694 C37.6443814,18.4890685 37.4147398,18.4932521 37.1396334,18.4932521 L35.4232049,18.4932521 L35.4232049,17.0928762 L37.1629898,17.0928762 C37.4092127,17.0928762 37.6661332,17.1046664 37.8330156,17.2065949 C38.016301,17.2984447 38.1296955,17.4939344 38.1296955,17.7639689 C38.1296955,18.0395182 38.0218281,18.2612507 37.8385427,18.3633694 L37.8385427,18.3633694 Z M50.0833623,19.3642084 L49.1056025,16.850796 L48.1331914,19.3642084 L50.0833623,19.3642084 L50.0833623,19.3642084 Z M27.2582683,22.0847106 L25.8098144,22.0847106 L25.8044656,17.1468831 L23.7556986,22.0847106 L22.5151346,22.0847106 L20.4610188,17.1425093 L20.4610188,22.0847106 L17.5872891,22.0847106 L17.0443864,20.6784395 L14.1025488,20.6784395 L13.5541189,22.0847106 L12.0195494,22.0847106 L14.5497081,15.7799762 L16.6489321,15.7799762 L19.0519677,21.7492593 L19.0519677,15.7799762 L21.3580118,15.7799762 L23.2070905,20.0569799 L24.9056897,15.7799762 L27.25809,15.7799762 L27.25809,22.0847106 L27.2582683,22.0847106 Z M33.0312234,22.0847106 L28.3112679,22.0847106 L28.3112679,15.7799762 L33.0312234,15.7799762 L33.0312234,17.0928762 L29.7242414,17.0928762 L29.7242414,18.2293029 L32.951883,18.2293029 L32.951883,19.5216651 L29.7242414,19.5216651 L29.7242414,20.7807483 L33.0312234,20.7807483 L33.0312234,22.0847106 L33.0312234,22.0847106 Z M39.686195,17.4779606 C39.686195,18.4831734 39.0571766,19.0025143 38.6906058,19.1584497 C38.9997662,19.2839587 39.2638184,19.5056912 39.3895151,19.6893907 C39.5890252,20.002973 39.6234358,20.2830862 39.6234358,20.8461651 L39.6234358,22.0847106 L38.1983384,22.0847106 L38.1929896,21.2896302 C38.1929896,20.9102508 38.2270436,20.3646671 37.9699448,20.0613537 C37.7634813,19.8396212 37.4487938,19.7915094 36.9401233,19.7915094 L35.4233832,19.7915094 L35.4233832,22.0847106 L34.0105879,22.0847106 L34.0105879,15.7799762 L37.2603379,15.7799762 C37.9824253,15.7799762 38.5144522,15.8003239 38.9712393,16.0819584 C39.4182203,16.363593 39.686195,16.77473 39.686195,17.4779606 L39.686195,17.4779606 Z M41.9473092,22.0847106 L40.5056305,22.0847106 L40.5056305,15.7799762 L41.9473092,15.7799762 L41.9473092,22.0847106 L41.9473092,22.0847106 Z M58.6726367,22.0847106 L56.6704042,22.0847106 L53.9922622,17.3526418 L53.9922622,22.0847106 L51.1147884,22.0847106 L50.5649322,20.6784395 L47.6298697,20.6784395 L47.0964165,22.0847106 L45.4431038,22.0847106 C44.7563184,22.0847106 43.8867825,21.9226899 43.3943368,21.3873751 C42.8977902,20.8520603 42.6394434,20.1269607 42.6394434,18.9804552 C42.6394434,18.0454133 42.7938453,17.1906211 43.4011119,16.5151546 C43.857899,16.0119777 44.5732113,15.7799762 45.5468704,15.7799762 L46.9147358,15.7799762 L46.9147358,17.1309092 L45.5755756,17.1309092 C45.0599517,17.1309092 44.7687989,17.2126802 44.4883438,17.5043935 C44.2474697,17.769864 44.0821919,18.2717098 44.0821919,18.9325336 C44.0821919,19.6080001 44.2080669,20.0950129 44.4706927,20.4131592 C44.6882104,20.6626558 45.0834864,20.7383415 45.455406,20.7383415 L46.0899515,20.7383415 L48.0813081,15.7801664 L50.1983614,15.7801664 L52.5905211,21.7435543 L52.5905211,15.7801664 L54.7418067,15.7801664 L57.2254309,20.171079 L57.2254309,15.7801664 L58.6726367,15.7801664 L58.6726367,22.0847106 L58.6726367,22.0847106 Z M12.0031465,23.3230658 L14.4172362,23.3230658 L14.9615654,21.9226899 L16.1801993,21.9226899 L16.7231021,23.3230658 L21.4730109,23.3230658 L21.4730109,22.2524362 L21.8969921,23.3276298 L24.3627869,23.3276298 L24.7867681,22.2364623 L24.7867681,23.3230658 L36.5912035,23.3230658 L36.5856765,21.0243499 L36.81407,21.0243499 C36.973999,21.030245 37.0207118,21.0460287 37.0207118,21.3276632 L37.0207118,23.3230658 L43.1260055,23.3230658 L43.1260055,22.7879412 C43.6184513,23.0693855 44.3843988,23.3230658 45.3922902,23.3230658 L47.9607819,23.3230658 L48.5104598,21.9226899 L49.7290937,21.9226899 L50.2666477,23.3230658 L55.2162449,23.3230658 L55.2162449,21.9928608 L55.9657895,23.3230658 L59.9320998,23.3230658 L59.9320998,14.5298307 L56.0067969,14.5298307 L56.0067969,15.5683224 L55.457119,14.5298307 L51.4292976,14.5298307 L51.4292976,15.5683224 L50.9245496,14.5298307 L45.4839329,14.5298307 C44.5732113,14.5298307 43.7726749,14.6654185 43.1260055,15.0432766 L43.1260055,14.5298307 L39.3715075,14.5298307 L39.3715075,15.0432766 C38.9600069,14.6538184 38.3992748,14.5298307 37.7757835,14.5298307 L24.0591536,14.5298307 L23.1388042,16.8009727 L22.193672,14.5298307 L17.8732714,14.5298307 L17.8732714,15.5683224 L17.3986549,14.5298307 L13.7140479,14.5298307 L12.0029682,18.7106109 L12.0029682,23.3230658 L12.0031465,23.3230658 Z" id="AMERICAN" fill="#FFFFFF"></path>
                </g>
            </g>
        </g>
    </g>
</svg>