<?xml version="1.0" encoding="UTF-8"?>
<svg width="240px" height="240px" viewBox="0 0 240 240" version="1.1" xmlns="http://www.w3.org/2000/svg" xmlns:xlink="http://www.w3.org/1999/xlink">
    <!-- Generator: Sketch 42 (36781) - http://www.bohemiancoding.com/sketch -->
    <title>Group 4</title>
    <desc>Created with Sketch.</desc>
    <defs></defs>
    <g id="Welcome" stroke="none" stroke-width="1" fill="none" fill-rule="evenodd">
        <g id="Countdown-Page" transform="translate(-601.000000, -394.000000)">
            <g id="Group-6">
                <g id="214288" transform="translate(601.000000, 394.000000)">
                    <g id="Layer_1">
                        <g id="Group-4">
                            <path d="M119.791842,0.000475247525 C185.864554,0.000475247525 239.583683,53.719604 239.583683,119.792317 C239.583683,185.86503 185.864079,239.583208 119.791842,239.583208 C53.719604,239.583208 0,186.051802 0,119.792317 C0,53.719604 53.7191287,0.000475247525 119.791842,0.000475247525 Z" id="Shape" fill="#000000"></path>
                            <path d="M119.791842,20.5896238 C174.63398,20.5896238 218.994059,64.9501782 218.994059,119.791842 C218.994059,174.633505 174.633505,218.994059 119.791842,218.994059 C64.9501782,218.994059 20.5891485,174.633505 20.5891485,119.792317 C20.5891485,64.9511287 64.949703,20.5896238 119.791842,20.5896238 Z" id="Shape" fill="#DFE1E2"></path>
                            <path d="M116.048317,108.561743 C124.283881,108.561743 131.022416,115.299802 131.022416,123.535842 C131.022416,131.771406 124.284356,138.509941 116.048317,138.509941 C107.812277,138.509941 101.074218,131.771881 101.074218,123.535842 C101.074218,115.299327 107.812277,108.561743 116.048317,108.561743 Z" id="Shape" fill="#BEBFC0"></path>
                            <path d="M135.888475,98.453703 L75.9930297,158.349624 C74.4955248,159.847129 74.4955248,162.280396 75.9930297,163.777901 C77.4905347,165.275406 79.923802,165.275406 81.4213069,163.777901 L141.317228,103.88198 C142.814733,102.384475 142.814733,99.9512079 141.317228,98.453703 C139.819248,96.956198 137.38598,96.956198 135.888475,98.453703 Z" id="Shape" fill="#9E1096"></path>
                            <path d="M123.534891,110.620515 L103.13299,131.209663 C104.443248,133.455683 106.314772,135.327683 108.561267,136.637941 L128.963168,116.048792 C127.652911,113.801822 125.781386,111.930772 123.534891,110.620515 Z" id="Shape" fill="#4425CC"></path>
                            <path d="M119.791842,116.048792 L179.687762,116.048792 C181.746535,116.048792 183.431287,117.733545 183.431287,119.792317 C183.431287,121.851089 181.746535,123.535842 179.687762,123.535842 L119.791842,123.535842 C117.733069,123.535842 116.048317,121.851089 116.048317,119.792317 C116.048317,117.733069 117.732594,116.048792 119.791842,116.048792 Z M94.3356832,84.4163168 L125.219644,115.300277 C128.027406,118.10804 128.027406,122.412832 125.219644,125.220594 C122.411881,128.028356 118.107089,128.028356 115.299327,125.220594 L84.4153663,94.3366337 C81.607604,91.5288713 81.607604,87.2240792 84.4153663,84.4163168 C87.0358812,81.6080792 91.528396,81.6080792 94.3356832,84.4163168 Z" id="Shape" fill="#2C01D5"></path>
                            <path d="M119.791842,104.818218 C128.027406,104.818218 134.765941,111.556277 134.765941,119.792317 C134.765941,128.028356 128.027881,134.766416 119.791842,134.766416 C111.555802,134.766416 104.817743,128.028356 104.817743,119.792317 C104.817743,111.556277 111.555802,104.818218 119.791842,104.818218 Z" id="Shape" fill="#E4E7E7"></path>
                            <path d="M119.791842,112.305267 C123.909861,112.305267 127.278891,115.674297 127.278891,119.792317 C127.278891,123.910337 123.909861,127.279366 119.791842,127.279366 C115.673822,127.279366 112.304792,123.910337 112.304792,119.792317 C112.304792,115.674297 115.673822,112.305267 119.791842,112.305267 Z" id="Shape" fill="#324D5B"></path>
                            <path d="M119.791842,20.5896238 C90.4053861,20.5896238 64.2011881,33.317703 46.0453069,53.5323564 C63.6399208,37.8097426 86.8491089,28.0766733 112.305267,28.0766733 C167.147406,28.0766733 211.507485,72.4372277 211.507485,127.278891 C211.507485,152.734574 201.961663,175.944238 186.051802,193.538851 C206.266455,175.38297 218.994535,149.178297 218.994535,119.792317 C218.994059,64.949703 174.633505,20.5896238 119.791842,20.5896238 Z" id="Shape" fill="#CFD1D2"></path>
                        </g>
                    </g>
                </g>
            </g>
        </g>
    </g>
</svg>