<?xml version="1.0" encoding="UTF-8"?>
<svg width="74px" height="48px" viewBox="0 0 74 48" version="1.1" xmlns="http://www.w3.org/2000/svg" xmlns:xlink="http://www.w3.org/1999/xlink">
    <!-- Generator: Sketch 42 (36781) - http://www.bohemiancoding.com/sketch -->
    <title>DISCOVER</title>
    <desc>Created with Sketch.</desc>
    <defs>
        <rect id="path-1" x="0" y="0" width="72.8858962" height="46.7841745" rx="4"></rect>
        <mask id="mask-2" maskContentUnits="userSpaceOnUse" maskUnits="objectBoundingBox" x="0" y="0" width="72.8858962" height="46.7841745" fill="white">
            <use xlink:href="#path-1"></use>
        </mask>
        <mask id="mask-4" maskContentUnits="userSpaceOnUse" maskUnits="objectBoundingBox" x="0" y="0" width="72.8858962" height="46.7841745" fill="white">
            <use xlink:href="#path-1"></use>
        </mask>
        <path d="M17.5767377,46.7841745 L68.8859484,46.7841745 C71.0950586,46.7841745 72.8858962,45.0000501 72.8858962,42.7812304 L72.8858962,26.2756054 C72.8858962,26.2756054 53.3521364,40.4433569 17.5767377,46.7841745 Z" id="path-5"></path>
    </defs>
    <g id="Welcome" stroke="none" stroke-width="1" fill="none" fill-rule="evenodd">
        <g id="Terms" transform="translate(-666.000000, -454.000000)">
            <g id="Group-4" transform="translate(423.000000, 454.000000)">
                <g id="DISCOVER" transform="translate(243.000000, 0.000000)">
                    <g id="Rectangle" transform="translate(0.874528, 0.943542)">
                        <mask id="mask-3" fill="white">
                            <use xlink:href="#path-1"></use>
                        </mask>
                        <g id="Mask" stroke="#E6772F" mask="url(#mask-2)" stroke-width="2" fill="#FFFFFF">
                            <use mask="url(#mask-4)" xlink:href="#path-1"></use>
                        </g>
                        <mask id="mask-6" fill="white">
                            <use xlink:href="#path-5"></use>
                        </mask>
                        <use id="Mask" fill="#E7772F" xlink:href="#path-5"></use>
                    </g>
                    <path d="M14.2043261,24.1968483 C13.6571618,24.6973566 12.9606152,24.9162195 11.8467573,24.9162195 L11.3845629,24.9162195 L11.3845629,18.9434393 L11.8467573,18.9434393 C12.9606152,18.9434393 13.6304375,19.1475709 14.2043261,19.672982 C14.7967162,20.2159301 15.1526984,21.0535012 15.1526984,21.9198332 C15.1526984,22.7903741 14.7967162,23.6577583 14.2043261,24.1968483 L14.2043261,24.1968483 Z M12.1917758,17.413504 L9.662897,17.413504 L9.662897,26.4468562 L12.1763579,26.4468562 C13.5139466,26.4468562 14.47945,26.1210172 15.3257216,25.4019967 C16.3309689,24.5503959 16.9274704,23.2645769 16.9274704,21.9324599 C16.9274704,19.2657709 14.9813884,17.413504 12.1917758,17.413504 L12.1917758,17.413504 Z" id="Fill-13" fill="#1A1918"></path>
                    <polygon id="Fill-14" fill="#1A1918" points="17.7213211 17.413504 19.4361346 17.413504 19.4361346 26.4468562 17.7213211 26.4468562"></polygon>
                    <path d="M23.6472779,20.8756752 C22.6122227,20.4870534 22.3096892,20.2282061 22.3096892,19.7399736 C22.3096892,19.1724736 22.8503436,18.7421135 23.5938292,18.7421135 C24.1091298,18.7421135 24.5336361,18.95326 24.9858946,19.469201 L25.8811608,18.2668585 C25.1414441,17.6004493 24.2561138,17.2630358 23.2909531,17.2630358 C21.7292908,17.2630358 20.5390286,18.3752377 20.5390286,19.8458976 C20.5390286,21.094538 21.09236,21.7279775 22.7071285,22.3294995 C23.38209,22.5697576 23.7250527,22.7339047 23.8987611,22.8450898 C24.2427516,23.0727211 24.4140617,23.3989109 24.4140617,23.7759582 C24.4140617,24.5107621 23.8453123,25.0509043 23.0764729,25.0509043 C22.2579535,25.0509043 21.5956689,24.6314172 21.1992575,23.8436514 L20.0898537,24.9435773 C20.8830192,26.1332931 21.8337899,26.6650175 23.1436264,26.6650175 C24.9300475,26.6650175 26.1888336,25.4405783 26.1888336,23.6966906 C26.1888336,22.2597019 25.605009,21.6083746 23.6472779,20.8756752" id="Fill-15" fill="#1A1918"></path>
                    <path d="M26.7294881,21.9324599 C26.7294881,24.5889775 28.7663645,26.6474804 31.3884359,26.6474804 C32.12781,26.6474804 32.7616571,26.4980645 33.5421457,26.1210172 L33.5421457,24.0449771 C32.8524515,24.7545275 32.2470418,25.0344194 31.4638123,25.0344194 C29.7311826,25.0344194 28.5039175,23.7510556 28.5039175,21.9198332 C28.5039175,20.1896245 29.7709265,18.818926 31.3884359,18.818926 C32.2045569,18.818926 32.8281254,19.1149519 33.5421457,19.8350246 L33.5421457,17.7614398 C32.7880389,17.3710643 32.169267,17.2093723 31.4237258,17.2093723 C28.8167296,17.2093723 26.7294881,19.3082106 26.7294881,21.9324599" id="Fill-16" fill="#1A1918"></path>
                    <polyline id="Fill-17" fill="#1A1918" points="47.4840417 23.4781785 45.1309271 17.413504 43.2547395 17.413504 46.9954655 26.6748383 47.9181414 26.6748383 51.7315028 17.413504 49.8700479 17.413504 47.4840417 23.4781785"></polyline>
                    <polyline id="Fill-18" fill="#1A1918" points="52.5123339 26.4468562 57.3922716 26.4468562 57.3922716 24.9162195 54.2339998 24.9162195 54.2339998 22.4778632 57.2723546 22.4778632 57.2723546 20.9475773 54.2339998 20.9475773 54.2339998 18.9434393 57.3922716 18.9434393 57.3922716 17.413504 52.5123339 17.413504 52.5123339 26.4468562"></polyline>
                    <path d="M60.7533746,21.5673378 L60.2538345,21.5673378 L60.2538345,18.8350601 L60.7814694,18.8350601 C61.8566112,18.8350601 62.4325555,19.2969869 62.4325555,20.1769978 C62.4325555,21.0812098 61.8566112,21.5673378 60.7533746,21.5673378 L60.7533746,21.5673378 Z M64.2045866,20.0787901 C64.2045866,18.3871629 63.0711994,17.413504 61.0843456,17.413504 L58.5283998,17.413504 L58.5283998,26.4468562 L60.2538345,26.4468562 L60.2538345,22.814926 L60.4775654,22.814926 L62.8550061,26.4468562 L64.9720555,26.4468562 L62.1958051,22.6395552 C63.4933073,22.3680811 64.2045866,21.4610631 64.2045866,20.0787901 L64.2045866,20.0787901 Z" id="Fill-19" fill="#1A1918"></path>
                    <path d="M43.4973145,21.9535044 C43.4973145,24.554254 41.4388531,26.6622116 38.8972974,26.6622116 C36.356427,26.6622116 34.2976229,24.554254 34.2976229,21.9535044 C34.2976229,19.3524041 36.356427,17.2440958 38.8972974,17.2440958 C41.4388531,17.2440958 43.4973145,19.3524041 43.4973145,21.9535044" id="Fill-20" fill="#E7772F"></path>
                </g>
            </g>
        </g>
    </g>
</svg>