<?xml version="1.0" encoding="UTF-8"?>
<svg width="89px" height="91px" viewBox="0 0 89 91" version="1.1" xmlns="http://www.w3.org/2000/svg" xmlns:xlink="http://www.w3.org/1999/xlink">
    <!-- Generator: Sketch 42 (36781) - http://www.bohemiancoding.com/sketch -->
    <title>GlassLogo Copy 3</title>
    <desc>Created with Sketch.</desc>
    <defs>
        <linearGradient x1="20.0104205%" y1="25.5822737%" x2="110.368099%" y2="195.343003%" id="linearGradient-1">
            <stop stop-color="#2800D7" offset="0%"></stop>
            <stop stop-color="#D91976" offset="100%"></stop>
        </linearGradient>
        <linearGradient x1="45.7749175%" y1="33.9308865%" x2="190.658408%" y2="128.804305%" id="linearGradient-2">
            <stop stop-color="#2800D7" offset="0%"></stop>
            <stop stop-color="#D91976" offset="100%"></stop>
        </linearGradient>
        <linearGradient x1="13.328165%" y1="22.7539417%" x2="111.983515%" y2="150.699795%" id="linearGradient-3">
            <stop stop-color="#2800D7" offset="0%"></stop>
            <stop stop-color="#D91976" offset="100%"></stop>
        </linearGradient>
        <linearGradient x1="-0.939668678%" y1="-10.3988642%" x2="104.491799%" y2="109.712857%" id="linearGradient-4">
            <stop stop-color="#2800D7" offset="0%"></stop>
            <stop stop-color="#D91976" offset="100%"></stop>
        </linearGradient>
        <linearGradient x1="-21.7654434%" y1="-10.873145%" x2="106.419424%" y2="91.5782414%" id="linearGradient-5">
            <stop stop-color="#2800D7" offset="0%"></stop>
            <stop stop-color="#D91976" offset="100%"></stop>
        </linearGradient>
    </defs>
    <g id="Page-1" stroke="none" stroke-width="1" fill="none" fill-rule="evenodd">
        <g id="icon-76@2x" transform="translate(-32.000000, -31.000000)">
            <g id="GlassLogo-Copy-3" transform="translate(32.000000, 31.000000)">
                <g id="Group">
                    <path d="M23.0769682,41.0979198 C23.0769682,41.0979198 24.7542759,24.633138 48.3467122,20.0648423 C48.3467122,20.0648423 72.1492546,16.3474744 86.5150822,37.9111261 C86.5150822,37.9111261 87.9831101,36.7431932 87.9831101,29.5198739 C87.9831101,29.5198739 79.279996,13.0541353 57.8891883,4.02516557 C57.8893064,4.02516557 25.9080889,8.59238502 23.0769682,41.0979198 Z" id="Shape" fill="url(#linearGradient-1)"></path>
                    <path d="M33.5090902,66.4268909 C33.5090902,66.4268909 18.4017533,60.1207464 20.7790212,35.9067346 C20.7790212,35.9067346 24.020439,11.7305099 48.5100756,3.90044415 C48.5100756,3.90044415 47.8220371,2.14226675 40.9850902,0.0913587385 C40.9850902,0.0913587385 22.9283594,3.86851643 8.30768966,22.0817898 C8.30768966,22.0819093 3.54807825,54.4444271 33.5090902,66.4268909 Z" id="Shape" fill="url(#linearGradient-2)"></path>
                    <path d="M59.5394655,64.3403482 C59.5394655,64.3403482 48.6275225,76.6600263 26.8909841,66.309703 C26.8909841,66.309703 5.4785756,55.1438476 6.36727719,29.1428397 C6.36727719,29.1428397 4.50170027,29.2136307 0.309965517,35.0570026 C0.309965517,35.0570026 -2.20198276,53.5609737 9.86424536,73.6035742 C9.8643634,73.6034547 38.3873289,88.9514836 59.5394655,64.3403482 Z" id="Shape" fill="url(#linearGradient-3)"></path>
                    <path d="M65.8923422,38.5991866 C65.8923422,38.5991866 73.9632493,52.9924928 57.3779695,70.5902904 C57.3779695,70.5902904 40.1303833,87.6180526 16.0732347,78.5148239 C16.0732347,78.5148239 15.5469072,80.3294428 19.688122,86.2103627 C19.688122,86.2103627 36.2117865,94.4949501 58.8022056,89.2626294 C58.8022056,89.2626294 82.2186485,66.7293075 65.8923422,38.5991866 Z" id="Shape" fill="url(#linearGradient-4)"></path>
                    <path d="M43.2353501,24.1124888 C43.2353501,24.1124888 59.1820491,20.5011879 70.9452759,41.7145913 C70.9452759,41.7145913 81.9764363,63.4035624 66.3480836,84.0481261 C66.3480836,84.0481261 67.9078263,85.0885874 74.6693475,82.7958896 C74.6693475,82.7958896 87.3209218,69.2095059 88.9874881,45.7936873 C88.9874881,45.7936873 74.5645305,16.5191905 43.2353501,24.1124888 Z" id="Shape" fill="url(#linearGradient-5)"></path>
                </g>
            </g>
        </g>
    </g>
</svg>