<?xml version="1.0" encoding="iso-8859-1"?>
<!-- Generator: Adobe Illustrator 18.0.0, SVG Export Plug-In . SVG Version: 6.00 Build 0)  -->
<!DOCTYPE svg PUBLIC "-//W3C//DTD SVG 1.1//EN" "http://www.w3.org/Graphics/SVG/1.1/DTD/svg11.dtd">
<svg xmlns="http://www.w3.org/2000/svg" xmlns:xlink="http://www.w3.org/1999/xlink" version="1.1" id="Capa_1" x="0px" y="0px" viewBox="0 0 495.244 495.244" style="enable-background:new 0 0 495.244 495.244;" xml:space="preserve" width="512px" height="512px">
<g>
	<path d="M309.599,399.863H106.556l0.229-350.826h166.917c14.038-22.524,37.942-37.936,65.679-40.66   C332.274,3.1,323.704,0,314.486,0H101.851C77.378,0,57.483,21.725,57.483,48.423v398.392c0,26.696,19.895,48.43,44.368,48.43   h212.635c24.457,0,44.369-21.733,44.369-48.43V317.023h-49.203L309.599,399.863z M208.185,474.078   c-15.775,0-28.564-12.772-28.564-28.545c0-15.759,12.789-28.541,28.564-28.541c15.743,0,28.532,12.782,28.532,28.541   C236.717,461.307,223.928,474.078,208.185,474.078z" fill="#a845de"/>
	<path d="M330.146,95.127v15.695h28.709V81.519c-3.049-2.458-6.75-4.135-10.955-4.135C338.117,77.384,330.146,85.344,330.146,95.127   z" fill="#a845de"/>
	<path d="M419.147,127.879V95.127c0-39.315-31.956-71.268-71.247-71.268c-39.32,0-71.29,31.952-71.29,71.268v32.752   c-10.454,1.785-18.567,10.494-18.567,21.478v129.119c0,12.279,9.93,22.203,22.183,22.203h135.32   c12.253,0,22.216-9.924,22.216-22.203V149.357C437.761,138.373,429.615,129.664,419.147,127.879z M365.429,228.388   c0,9.688-7.855,17.549-17.543,17.549c-9.704,0-17.575-7.861-17.575-17.549v-28.931c0-9.689,7.871-17.553,17.575-17.553   c9.688,0,17.543,7.864,17.543,17.553V228.388z M381.985,127.158H313.79V95.127c0-18.791,15.302-34.098,34.11-34.098   c18.762,0,34.085,15.307,34.085,34.098V127.158z" fill="#a845de"/>
</g>
<g>
</g>
<g>
</g>
<g>
</g>
<g>
</g>
<g>
</g>
<g>
</g>
<g>
</g>
<g>
</g>
<g>
</g>
<g>
</g>
<g>
</g>
<g>
</g>
<g>
</g>
<g>
</g>
<g>
</g>
</svg>
