<?xml version="1.0" encoding="UTF-8"?>
<svg width="41px" height="38px" viewBox="0 0 41 38" version="1.1" xmlns="http://www.w3.org/2000/svg" xmlns:xlink="http://www.w3.org/1999/xlink">
    <!-- Generator: Sketch 42 (36781) - http://www.bohemiancoding.com/sketch -->
    <title>User round 2</title>
    <desc>Created with Sketch.</desc>
    <defs></defs>
    <g id="Welcome" stroke="none" stroke-width="1" fill="none" fill-rule="evenodd">
        <g id="Profile-information" transform="translate(-428.000000, -190.000000)" fill="#4A4A4A">
            <g id="Group-4" transform="translate(403.000000, 176.000000)">
                <path d="M45.4956334,14 C34.1926934,14 25,22.5242764 25,33 C25,36.7647726 26.1904306,40.4129652 28.4482851,43.5454182 C32.2683235,48.8396692 38.6400655,52 45.4956334,52 C52.3512014,52 58.7256769,48.8396692 62.5429818,43.5428838 C64.7953694,40.4193011 65.9871667,36.7711084 65.9871667,33 C65.9857999,22.5242764 56.79584,14 45.4956334,14 L45.4956334,14 Z M45.4956334,15.3609444 C55.9839964,15.3609444 64.5151877,23.2731759 64.5151877,33 C64.5151877,36.1856743 63.6022053,39.2737762 61.8623453,41.9867947 C61.7981085,41.9171002 61.7133706,41.8702148 61.6518673,41.8030546 C60.9684973,41.0883687 60.2263575,40.4319728 59.4022132,39.8478058 C59.2737397,39.7565693 59.130232,39.6716687 58.9935579,39.5855009 C58.1079104,38.9962652 57.1675933,38.4589836 56.1288709,38.0218087 C55.7817189,37.8710151 55.3675967,37.9989996 55.1844535,38.3094571 C53.2190813,41.5635588 49.5097489,43.5859677 45.4970002,43.5859677 C41.4869849,43.5859677 37.774919,41.5635588 35.8040799,38.3094571 C35.719342,38.1688009 35.582668,38.0839002 35.4336934,38.0268774 C35.3913244,38.0116713 35.3557892,38.0066026 35.3134202,37.9977324 C35.2601174,37.987595 35.215015,37.9609844 35.1644456,37.9609844 C35.0605733,37.9609844 34.9567011,37.9812592 34.8596626,38.0230759 C33.8236736,38.4615179 32.8819897,38.9962652 31.9977089,39.5842337 C31.8583015,39.6729358 31.7147938,39.7578365 31.5835867,39.8516073 C30.7580757,40.4383087 30.0118357,41.0959717 29.3311991,41.8144591 C29.2724293,41.879085 29.1917917,41.923436 29.1316551,41.9905962 C27.3890616,39.2712418 26.4733457,36.1818727 26.4733457,33.0012672 C26.4706123,23.2744431 35.0072705,15.3609444 45.4956334,15.3609444 L45.4956334,15.3609444 Z M45.4956334,50.6365213 C39.326169,50.6365213 33.5790271,47.874083 30.0022685,43.2286248 C30.4054568,42.7585034 30.8592145,42.3352674 31.3239061,41.9221689 C31.58222,41.6940776 31.8049986,41.4292384 32.0824468,41.2163532 C32.9311924,40.5726291 33.8551086,40.0036681 34.8746967,39.5259437 C37.1762869,42.8864879 41.1849354,44.9481793 45.4956334,44.9481793 C49.809065,44.9481793 53.8163467,42.8864879 56.11247,39.5259437 C57.132058,40.0036681 58.0614413,40.5726291 58.9074533,41.2163532 C59.1794346,41.4241697 59.3953795,41.6839402 59.6523266,41.9094971 C60.1224852,42.3251301 60.5817099,42.7509004 60.9903651,43.2260904 C57.4122397,47.8753501 51.6678314,50.6365213 45.4956334,50.6365213 L45.4956334,50.6365213 Z M38.4090864,25.9367747 C38.4090864,22.3164599 41.5881237,19.3677471 45.4970002,19.3677471 C49.4017764,19.3677471 52.579447,22.3151927 52.579447,25.9367747 L52.579447,33.1888089 C52.579447,36.811658 49.4031432,39.7603708 45.4970002,39.7603708 C41.5894904,39.7603708 38.4090864,36.8129252 38.4090864,33.1888089 L38.4090864,25.9367747 L38.4090864,25.9367747 Z M45.4956334,41.1225824 C50.2122533,41.1225824 54.0486925,37.5630919 54.0486925,33.1875417 L54.0486925,25.9355075 C54.0486925,21.5599573 50.2122533,18.0030012 45.4956334,18.0030012 C40.7762801,18.0030012 36.9371074,21.5599573 36.9371074,25.9355075 L36.9371074,33.1875417 C36.9371074,37.5643591 40.7762801,41.1225824 45.4956334,41.1225824 L45.4956334,41.1225824 Z" id="User-round-2" style="mix-blend-mode: darken;"></path>
            </g>
        </g>
    </g>
</svg>