<?xml version="1.0" encoding="UTF-8"?>
<svg width="74px" height="48px" viewBox="0 0 74 48" version="1.1" xmlns="http://www.w3.org/2000/svg" xmlns:xlink="http://www.w3.org/1999/xlink">
    <!-- Generator: Sketch 42 (36781) - http://www.bohemiancoding.com/sketch -->
    <title>Visa</title>
    <desc>Created with Sketch.</desc>
    <defs></defs>
    <g id="Welcome" stroke="none" stroke-width="1" fill="none" fill-rule="evenodd">
        <g id="Terms" transform="translate(-423.000000, -454.000000)">
            <g id="Group-4" transform="translate(423.000000, 454.000000)">
                <g id="Visa">
                    <rect id="Rectangle" fill="#26337A" x="0.594656323" y="0.415670614" width="72.7953547" height="46.7841745" rx="4"></rect>
                    <polyline id="Fill-3" fill="#FFFFFF" points="30.7974423 31.2517131 33.0357082 16.3789581 36.6134959 16.3789581 34.3754346 31.2517131 30.7974423 31.2517131"></polyline>
                    <path d="M47.3532026,16.7440065 C46.6457894,16.4455102 45.5332047,16.1199978 44.1472314,16.1199978 C40.6099609,16.1199978 38.1199975,18.1383066 38.0993296,21.0283825 C38.0768201,23.1661777 39.8761502,24.3584054 41.2326564,25.0689538 C42.6268149,25.7972933 43.0952178,26.2633779 43.0896927,26.9146224 C43.080075,27.910708 41.9769033,28.3671283 40.9482178,28.3671283 C39.515793,28.3671283 38.7547662,28.1424324 37.5781317,27.5871724 L37.1179141,27.3503961 L36.6175886,30.6795404 C37.4518736,31.093789 38.9984831,31.4533463 40.6036173,31.4722357 C44.3629137,31.4722357 46.8056071,29.4783073 46.8342556,26.3920893 C46.8471474,24.6968768 45.8937664,23.4119594 43.8290285,22.3510788 C42.5787264,21.6613966 41.811356,21.204537 41.8201551,20.5065084 C41.8209737,19.8884301 42.4684297,19.2266427 43.8697503,19.2266427 C45.0400413,19.2064355 45.8872182,19.4959263 46.5473614,19.7981564 L46.8686338,19.9681609 L47.3532026,16.7440065" id="Fill-4" fill="#FFFFFF"></path>
                    <path d="M52.1172426,25.9787193 C52.4137545,25.1238648 53.5425052,21.8215171 53.5425052,21.8215171 C53.5216327,21.8608334 53.83738,20.9600733 54.0180702,20.4026168 L54.2595361,21.6853378 C54.2595361,21.6853378 54.9460768,25.2352243 55.0874776,25.9787193 L52.1172426,25.9787193 L52.1172426,25.9787193 Z M56.531157,16.3941135 L53.7661681,16.3941135 C52.9085549,16.3941135 52.266624,16.6572471 51.8909195,17.6269754 L46.5776469,31.2569845 L50.3355109,31.2569845 C50.3355109,31.2569845 50.9485886,29.4233963 51.0877385,29.0210085 C51.4976166,29.0210085 55.1490718,29.028696 55.6702698,29.028696 C55.777497,29.5477148 56.1059315,31.2569845 56.1059315,31.2569845 L59.4267013,31.2569845 L56.531157,16.3941135 L56.531157,16.3941135 Z" id="Fill-5" fill="#FFFFFF"></path>
                    <path d="M27.7958986,16.3914778 L24.2940294,26.531124 L23.9189388,24.4699846 C23.266367,22.0951935 21.2349841,19.5211853 18.9627492,18.2314357 L22.1664694,31.2387541 L25.9529819,31.236338 L31.5873222,16.3914778 L27.7958986,16.3914778" id="Fill-6" fill="#FFFFFF"></path>
                    <path d="M21.0432438,16.3813742 L15.2736417,16.3813742 L15.226167,16.6895347 C19.7155907,17.921518 22.6860303,20.8952783 23.9189388,24.4699846 L22.6651579,17.6362004 C22.4488617,16.693708 21.8202319,16.4143208 21.0432438,16.3813742" id="Fill-7" fill="#ED982D"></path>
                </g>
            </g>
        </g>
    </g>
</svg>