<?xml version="1.0" encoding="UTF-8"?>
<svg width="36px" height="25px" viewBox="0 0 36 25" version="1.1" xmlns="http://www.w3.org/2000/svg" xmlns:xlink="http://www.w3.org/1999/xlink">
    <!-- Generator: Sketch 42 (36781) - http://www.bohemiancoding.com/sketch -->
    <title>Wallet empty 2</title>
    <desc>Created with Sketch.</desc>
    <defs></defs>
    <g id="Welcome" stroke="none" stroke-width="1" fill="none" fill-rule="evenodd">
        <g id="Profile-information" transform="translate(-426.000000, -564.000000)" fill="#4A4A4A">
            <g id="Group-11" transform="translate(403.000000, 545.000000)">
                <g id="Group-4-Copy" transform="translate(23.000000, 14.000000)">
                    <g id="Group-6">
                        <path d="M35.994,18.1010156 C35.994,18.0970781 35.9892,18.0951094 35.9892,18.0911719 L35.9892,9.33417187 C35.9892,9.19340625 35.9208,9.05953125 35.7996,8.96109375 C35.6772,8.8606875 35.514,8.8055625 35.3424,8.8055625 L2.814,8.8055625 L2.8116,8.8055625 C2.49,8.8055625 2.1972,8.7031875 1.944,8.5535625 C1.878,8.51320312 1.7988,8.4905625 1.7376,8.44035937 C1.5972,8.32321875 1.4868,8.18835938 1.4124,8.03873437 L1.4076,8.03676563 C1.3332,7.88714062 1.2924,7.72570312 1.2924,7.55639062 C1.2924,7.22367187 1.4496,6.91064063 1.7352,6.67439063 C2.0232,6.43814062 2.4084,6.3091875 2.8128,6.3091875 L34.8384,6.3091875 C35.1948,6.3091875 35.4828,6.07096875 35.4828,5.77860938 C35.4828,5.48625 35.1948,5.25 34.8384,5.25 L2.8128,5.25 C2.0604,5.25 1.3524,5.4901875 0.8232,5.92725 C0.2916,6.36332812 0,6.94214062 0,7.55934375 L0,26.8678594 C0,28.1406563 1.2612,29.1772031 2.8104,29.1772031 L35.3412,29.1772031 C35.6976,29.1772031 35.988,28.9409531 35.988,28.646625 L35.988,21.669375 C35.988,21.6654375 35.9928,21.6634688 35.9928,21.6595313 L35.9928,18.1010156 L35.994,18.1010156 Z M34.698,21.1299375 L23.028,21.1299375 L23.028,18.6306094 L34.698,18.6306094 L34.698,21.1299375 L34.698,21.1299375 Z M2.8116,28.1160469 C1.9752,28.1160469 1.2924,27.5569219 1.2924,26.8658906 L1.2924,9.49954688 C1.386,9.54975 1.494,9.57239063 1.5948,9.61275 C1.6812,9.64720313 1.7616,9.68165625 1.8528,9.70921875 C2.1552,9.79978125 2.4744,9.86278125 2.8068,9.86278125 C2.8092,9.86278125 2.8092,9.86475 2.8116,9.86475 L2.814,9.86475 L2.814,9.86475 L34.698,9.86475 L34.698,17.5704375 L22.3836,17.5704375 C22.0272,17.5704375 21.7368,17.8086563 21.7368,18.1010156 L21.7368,21.6575625 C21.7368,21.9499219 22.0272,22.1881406 22.3836,22.1881406 L34.698,22.1881406 L34.698,28.1150625 L2.8116,28.1150625 L2.8116,28.1160469 Z" id="Wallet-empty-2" style="mix-blend-mode: darken;"></path>
                    </g>
                </g>
            </g>
        </g>
    </g>
</svg>