<?xml version="1.0" encoding="UTF-8"?>
<svg width="277px" height="200px" viewBox="0 0 277 200" version="1.1" xmlns="http://www.w3.org/2000/svg" xmlns:xlink="http://www.w3.org/1999/xlink">
    <!-- Generator: Sketch 41.2 (35397) - http://www.bohemiancoding.com/sketch -->
    <title>zero-percent</title>
    <desc>Created with Sketch.</desc>
    <defs></defs>
    <g id="Page-1" stroke="none" stroke-width="1" fill="" fill-rule="evenodd">
        <g id="zero-percent" transform="translate(4.000000, 4.000000)" stroke="#8B88DE" stroke-width="8">
            <path d="M49.4316239,175.904192 C76.731956,175.904192 98.8632479,138.070913 98.8632479,91.4011976 C98.8632479,44.7314827 76.731956,6.89820359 49.4316239,6.89820359 C22.1312919,6.89820359 0,44.7314827 0,91.4011976 C0,138.070913 22.1312919,175.904192 49.4316239,175.904192 Z M172.435897,57.4850299 C188.308184,57.4850299 201.175214,44.6165677 201.175214,28.742515 C201.175214,12.8684623 188.308184,3.55271368e-15 172.435897,3.55271368e-15 C156.563611,3.55271368e-15 143.696581,12.8684623 143.696581,28.742515 C143.696581,44.6165677 156.563611,57.4850299 172.435897,57.4850299 Z M240.260684,192 C256.13297,192 269,179.131538 269,163.257485 C269,147.383432 256.13297,134.51497 240.260684,134.51497 C224.388398,134.51497 211.521368,147.383432 211.521368,163.257485 C211.521368,179.131538 224.388398,192 240.260684,192 Z M249.456433,2.57380792 L144.845321,180.777401 L151.744422,184.82739 L256.355533,6.62379687 L249.456433,2.57380792 Z" id="Combined-Shape"></path>
        </g>
    </g>
</svg>